# xmcd
#
# Track frame offsets:
#	150
#	22412
#	44269
#	66884
#	86547
#	109252
#	133233
#	156081
#	178696
#	198843
#	218480
#	232005
#	254123
#
# Disc length: 3668 seconds
#
# Revision: 0
# Processed by: cddbd v1.5.2PL0 Copyright (c) Steve Scherf et al.
# Submitted via: EasyCDDAExtractor 16.0.9.1
#
DISCID=c00e520d
DTITLE=张玮伽 - 伽音如梦
DYEAR=1900
DGENRE=流行
TTITLE0=无心伤害
TTITLE1=让我一次爱个够
TTITLE2=爱情没有那么美
TTITLE3=无情伤
TTITLE4=最爱的人伤我最深
TTITLE5=那些花儿
TTITLE6=模特
TTITLE7=口是心非
TTITLE8=对你爱不完
TTITLE9=不甘寂寞
TTITLE10=我是不是你最疼爱的人
TTITLE11=春天里
TTITLE12=多年以后
EXTD=
EXTT0=
EXTT1=
EXTT2=
EXTT3=
EXTT4=
EXTT5=
EXTT6=
EXTT7=
EXTT8=
EXTT9=
EXTT10=
EXTT11=
EXTT12=
PLAYORDER=
